solid Untitled-6276bb1b
facet normal 0.0 0.0 -1.0
  outer loop
    vertex 10.0 10.0 0.0
    vertex 0.0 0.0 0.0
    vertex 0.0 10.0 0.0
  endloop
endfacet
facet normal 0.0 0.0 -1.0
  outer loop
    vertex 0.0 0.0 0.0
    vertex 10.0 10.0 0.0
    vertex 10.0 0.0 0.0
  endloop
endfacet
facet normal 0.0 0.0 1.0
  outer loop
    vertex 10.0 0.0 1.9999999999999998
    vertex 0.0 10.0 1.9999999999999998
    vertex 0.0 0.0 1.9999999999999998
  endloop
endfacet
facet normal 0.0 0.0 1.0
  outer loop
    vertex 0.0 10.0 1.9999999999999998
    vertex 10.0 0.0 1.9999999999999998
    vertex 10.0 10.0 1.9999999999999998
  endloop
endfacet
facet normal 1.0 0.0 0.0
  outer loop
    vertex 10.0 10.0 0.0
    vertex 10.0 0.0 1.9999999999999998
    vertex 10.0 0.0 0.0
  endloop
endfacet
facet normal 1.0 0.0 0.0
  outer loop
    vertex 10.0 0.0 1.9999999999999998
    vertex 10.0 10.0 0.0
    vertex 10.0 10.0 1.9999999999999998
  endloop
endfacet
facet normal -0.0 -1.0 -0.0
  outer loop
    vertex 10.0 0.0 1.9999999999999998
    vertex 0.0 0.0 0.0
    vertex 10.0 0.0 0.0
  endloop
endfacet
facet normal -0.0 -1.0 -0.0
  outer loop
    vertex 0.0 0.0 0.0
    vertex 10.0 0.0 1.9999999999999998
    vertex 0.0 0.0 1.9999999999999998
  endloop
endfacet
facet normal -1.0 0.0 0.0
  outer loop
    vertex 0.0 10.0 1.9999999999999998
    vertex 0.0 0.0 0.0
    vertex 0.0 0.0 1.9999999999999998
  endloop
endfacet
facet normal -1.0 0.0 0.0
  outer loop
    vertex 0.0 0.0 0.0
    vertex 0.0 10.0 1.9999999999999998
    vertex 0.0 10.0 0.0
  endloop
endfacet
facet normal -0.0 1.0 0.0
  outer loop
    vertex 0.0 10.0 1.9999999999999998
    vertex 10.0 10.0 0.0
    vertex 0.0 10.0 0.0
  endloop
endfacet
facet normal -0.0 1.0 0.0
  outer loop
    vertex 10.0 10.0 0.0
    vertex 0.0 10.0 1.9999999999999998
    vertex 10.0 10.0 1.9999999999999998
  endloop
endfacet
endsolid Untitled-6276bb1b
